<svg width="24" height="24" viewBox="0 0 24 24" fill="none" xmlns="http://www.w3.org/2000/svg">
<path fill-rule="evenodd" clip-rule="evenodd" d="M12 0C18.6281 0 24 5.37188 24 12C24 17.4797 20.3297 22.0969 15.3141 23.5359V14.6531H17.9016L18.2906 11.6484H15.3141V9.73594C15.3141 8.86875 15.5578 8.27813 16.8 8.27813H18.375V5.59688C18.1031 5.55938 17.1609 5.47969 16.0641 5.47969C13.7766 5.47969 12.2109 6.87656 12.2109 9.44062V11.6531H9.63281V14.6578H12.2109V23.9953C12.1406 24 12.0703 24 12 24C5.37188 24 0 18.6281 0 12C0 5.37188 5.37188 0 12 0ZM15.2625 23.55C15.2801 23.5453 15.2977 23.5407 15.3141 23.536C15.2766 23.5453 15.2438 23.5547 15.2111 23.5641L15.2109 23.5641C15.2273 23.5594 15.2449 23.5547 15.2625 23.55L15.2625 23.55ZM13.7859 23.8688C13.8363 23.8605 13.8867 23.8523 13.9359 23.8453C13.8328 23.8594 13.7344 23.8734 13.6359 23.8922C13.6852 23.8852 13.7355 23.877 13.7859 23.8688ZM13.3641 23.9203C13.2469 23.9344 13.1297 23.9438 13.0125 23.9531C13.1297 23.9484 13.2469 23.9344 13.3641 23.9203ZM13.4298 23.9109C13.486 23.9062 13.5422 23.9016 13.5984 23.8922C13.5501 23.9002 13.4983 23.9048 13.4519 23.909L13.4298 23.9109ZM15.0656 23.6016L14.9531 23.6297C14.9953 23.625 15.0281 23.6156 15.0656 23.6016ZM14.7186 23.6928L14.7469 23.6859C14.7094 23.6906 14.6672 23.7 14.6297 23.7141C14.6484 23.7094 14.6684 23.7047 14.6883 23.7L14.7186 23.6928ZM12.3141 23.993C12.3469 23.9918 12.3797 23.9906 12.4125 23.9906C12.3422 23.9953 12.2766 23.9953 12.2156 23.9953C12.2484 23.9953 12.2812 23.9941 12.3141 23.993Z" fill="#B3B3B3"/>
</svg>
